# xmcd
# 
# Track frame offsets:
#     150
#     24845
#     42971
#     63532
#     89461
#     103641
#     122476
#     146119
#     161622
#     185755
#     204543
#     222622
#     237940
#     256072
#     277842
#     293856
# 
# Disc length: 4182
# 
# Revision: 0
# Processed by: cddbd v1.5.2PL0 Copyright (c) Steve Scherf et al.
# Submitted via: fre:ac v1.0.17
# 
DISCID=ed105410
DTITLE=Indigo Girls - Retrospective
DYEAR=2000
DGENRE=Rock
TTITLE0=Strange Fire
TTITLE1=Closer to Fine
TTITLE2=Kid Fear
TTITLE3=Watershed
TTITLE4=Three Hits 
TTITLE5=Galileo
TTITLE6=Ghost 
TTITLE7=Reunion
TTITLE8=Power Of Two 
TTITLE9=Least Complicated
TTITLE10=Shame On You 
TTITLE11=Get Out the Map 
TTITLE12=Go 
TTITLE13=Trouble 
TTITLE14=Devotion
TTITLE15=Leaving
EXTD=
EXTT0=
EXTT1=
EXTT2=
EXTT3=
EXTT4=
EXTT5=
EXTT6=
EXTT7=
EXTT8=
EXTT9=
EXTT10=
EXTT11=
EXTT12=
EXTT13=
EXTT14=
EXTT15=
PLAYORDER=
